HIERARCHY
ROOT Hips
{
  OFFSET 0.0 0.0 0.0
  CHANNELS 6 XPOSITION YPOSITION ZPOSITION ZROTATION XROTATION YROTATION 
  JOINT LeftUpLeg
  {
    OFFSET 0.089458 -0.0866707 0.00101652
    CHANNELS 3 ZROTATION XROTATION YROTATION 
    JOINT LeftLeg
    {
      OFFSET 0.0 -0.444227 0.013727
      CHANNELS 3 ZROTATION XROTATION YROTATION 
      JOINT LeftFoot
      {
        OFFSET -0.00253549 -0.420924 -0.0146059
        CHANNELS 3 ZROTATION XROTATION YROTATION 
        End Site
        {
          OFFSET -0.0004 -0.0441509 0.084991
        }
      }
    }
  }
  JOINT Spine
  {
    OFFSET 0.0 0.118905 0.0
    CHANNELS 3 ZROTATION XROTATION YROTATION 
    JOINT Spine1
    {
      OFFSET 0.0 0.256574 0.00127663
      CHANNELS 3 ZROTATION XROTATION YROTATION 
      End Site
      {
        OFFSET -0.0029 0.2150836 0.02525291
      }
      JOINT RightArm
      {
        OFFSET -0.162727 -0.05365632 0.00102123
        CHANNELS 3 ZROTATION XROTATION YROTATION 
        JOINT RightForeArm
        {
          OFFSET -0.26364 0.00099144 -0.0142434
          CHANNELS 3 ZROTATION XROTATION YROTATION 
          End Site
          {
            OFFSET -0.220324 0.00085362 0.0102216
          }
        }
      }
      JOINT LeftArm
      {
        OFFSET 0.162727 -0.0536563199 0.00102123
        CHANNELS 3 ZROTATION XROTATION YROTATION 
        JOINT LeftForeArm
        {
          OFFSET 0.262597 0.00099144 -0.0142434
          CHANNELS 3 ZROTATION XROTATION YROTATION 
          End Site
          {
            OFFSET 0.220902 0.00085362 0.0102216
          }
        }
      }
    }
  }
  JOINT RightUpLeg
  {
    OFFSET -0.089458 -0.0866707 0.00101652
    CHANNELS 3 ZROTATION XROTATION YROTATION 
    JOINT RightLeg
    {
      OFFSET 0.0 -0.444227 0.013727
      CHANNELS 3 ZROTATION XROTATION YROTATION 
      JOINT RightFoot
      {
        OFFSET 0.00253549 -0.420924 -0.0146059
        CHANNELS 3 ZROTATION XROTATION YROTATION 
        End Site
        {
          OFFSET 0.0004 -0.0441509 0.084991
        }
      }
    }
  }
}
MOTION
Frames: 9
Frame Time: 0.033333
-24.6696262 0.98812961347 -0.2821736 -10.9070001658 -0.507923015564 -96.809701107 -5.91990040413 0.150694997267 3.42388994767 -0.746972966408 21.1640992943 22.9031013155 -0.479892025932 -16.2414999972 0.0470960986633 -4.27737992762 14.6407000237 -0.0295676988189 -0.915006932491 -1.93522012254 -0.780212989138 76.4563589276 -11.4158740184 -5.90487953749 6.89386958497 41.1199005583 9.99631055317 -69.5706129988 2.79715541796 -5.56481509088 -1.86951007419 27.220399003 -20.2435007847 -1.36770994969 -14.7169010291 4.20230035383 -2.13151015433 65.1950981939 -15.8307990148 10.780800468 -8.52512964086 -0.0946655948032 
-24.6903412 0.98978961347 -0.2799604 -10.9086001376 -0.109985995926 -96.4441015713 -5.66487992355 1.98870007686 3.57951004493 -0.898753003257 20.3643012179 22.4636998782 -0.522319987117 -17.1623990351 0.0455442983602 -4.1772100808 14.6454999391 -0.367137982453 -0.412813004898 -1.9669200977 -1.14531995081 76.2231421183 -11.6967689631 -6.65922483933 6.63144005668 40.8293989526 10.315700444 -69.2716146377 3.73919261065 -6.92257132052 -0.861762993229 25.4701015565 -22.409299129 -0.839280998689 -16.6704000186 4.04263016783 -1.78106008493 59.9301015137 -16.1557008684 10.9636992736 -9.72989987836 0.0160799995339 
-24.7107432 0.99058961347 -0.2782515 -10.8906000278 0.179919015507 -96.0465025993 -5.49988987396 3.81688003605 3.75738994215 -1.02508002 19.4503006711 22.055601198 -0.223365008384 -18.0309993144 0.0743603028445 -4.17140015114 14.7141996893 -0.626476049731 0.192998000675 -2.00696997911 -1.43490001466 75.882937226 -13.052973886 -6.81933557253 6.84678012639 41.4070997677 9.78212008966 -69.0757794538 3.29504547261 -8.23256958682 -0.0372250012191 25.4948985583 -24.4245993776 -0.594507029156 -17.9294992883 3.52883004129 -1.49208993563 53.1856004819 -16.3576012602 11.5078006806 -10.414900404 0.0905031014321 
-24.7308292 0.99103961347 -0.2769948 -10.816399414 0.291413009146 -95.6497027595 -5.48773042969 5.67251009862 3.85282988297 -1.14980994641 18.2270001304 21.6514998859 -0.0544644987358 -18.754801291 0.0940507977366 -4.31186982161 14.9083000052 -0.755684979416 1.02220002805 -2.18536982448 -1.61647002829 75.5100225577 -14.8848536733 -6.6484280178 7.22499032574 42.3066015304 8.90067990841 -69.0314856771 2.2198844779 -9.39055558983 0.665311971743 26.5575001158 -26.2700003781 -0.575408966463 -18.7142999767 2.79352004978 -1.26606990465 45.6605010355 -16.1318003289 11.4251997879 -10.274700526 0.075658805849 
-24.7509602 0.99056961347 -0.2761075 -10.7189001711 0.169933999312 -95.2693978265 -5.72495954815 7.31989921935 3.85745007905 -1.19127997357 17.3479991805 21.3081001726 -0.283414003855 -19.5761998406 0.074268802322 -4.40179011581 15.1693003164 -0.761892981041 1.52560994276 -2.41067001755 -1.63688012764 75.29058224 -16.6915001805 -6.29531364101 7.50234040227 43.2476001075 8.09466977502 -68.9751844278 1.78689135894 -10.466846554 1.23786004944 27.2701996198 -27.7886997703 -0.795551032693 -19.0380014245 2.0149901153 -1.08811007288 37.8097006035 -15.6450007939 11.2331997552 -10.0560994678 0.0506946011698 
-24.7721122 0.98862961347 -0.2755638 -10.6758998614 -0.130943997837 -94.8402023994 -6.15919010529 8.74299986877 3.87115997627 -1.13813000277 17.1921991504 20.987999942 -0.69836096262 -20.6556002483 0.0300692007897 -4.25404031746 15.3411017721 -0.746911974953 1.34233003395 -2.44553002242 -1.53979998092 75.3368772622 -17.9259868635 -5.72357472729 7.63199019932 43.746101464 7.6248799724 -68.900346045 1.80468795043 -11.4942128731 1.67415001534 27.7700004199 -28.8484002049 -1.22920993502 -18.8058996437 0.926520923884 -0.991348063566 30.0346025732 -15.3148004212 11.394900215 -10.213600215 0.0690436008852 
-24.7946502 0.98595961347 -0.2753599 -10.6442000997 -0.448810022814 -94.2699977169 -6.5709903212 10.2471996231 3.90645028305 -1.04535991886 17.0749999344 20.5338999377 -1.0259399835 -21.8005995004 -0.0115389992906 -3.87094012955 15.3475989896 -0.781192961202 0.942312107802 -2.24179017523 -1.44207993086 75.5093395388 -18.1330508784 -4.95419617909 7.63481021368 43.4824015206 7.63475984103 -68.8802789492 2.1889311278 -12.2778097407 1.97475005581 28.1173001712 -29.4332010016 -1.70501009067 -18.2101005349 -0.932867023397 -0.843716993112 22.9113009576 -14.9922003414 11.2773996169 -10.348700503 0.0791202976956 
-24.8185012 0.98294661347 -0.2755973 -10.4924998907 -0.678142962347 -93.6487988421 -6.86065992456 11.8813001839 3.89081000362 -0.894073043015 16.6006006079 20.0226995519 -1.20367996856 -22.9028007871 -0.0393427000372 -3.32225993447 15.1335989176 -0.802099049673 0.707541003669 -1.95271992097 -1.33456005344 75.5895737709 -17.4002245144 -4.10710459228 7.5407004522 42.7951000749 8.01077029258 -68.9653899365 2.95860038593 -12.6093240711 2.03901978802 28.1988987337 -29.5092005165 -2.10311001432 -17.6960007338 -2.52222002675 -0.17222499417 17.2126999632 -14.8528013031 10.9059005053 -10.1824007647 0.055028096064 
-24.8442452 0.97889361347 -0.2765114 -10.2123998093 -0.813839984774 -93.2071997915 -7.09008000237 13.4750001758 3.85597988084 -0.642133991599 16.2278003453 19.7307994649 -1.30566002896 -24.0880998629 -0.0601965982595 -2.62902006626 14.5882014822 -0.735415966167 0.396159002669 -1.62716994652 -1.11204999264 75.5446038054 -16.5179348284 -3.12358083057 7.51114024724 42.4966003176 8.24759002657 -69.195259953 3.94885124364 -12.3864174325 1.83883996349 27.9806998029 -29.069298768 -2.30853008804 -17.4411988192 -2.39396999159 0.723820012504 13.5983004582 -15.409700777 11.1140001476 -10.1803004815 0.0600019978992 
